<svg xmlns="http://www.w3.org/2000/svg" viewBox="0 0 100 100">
  <circle cx="50" cy="50" r="45" fill="#fff" stroke="#3c790a" stroke-width="10"/>
  <path fill="#3c790a" d="M 66.23 62.237 L 74.235 62.237 L 74.235 43.019 L 65.218 34.002 L 59.557 39.661 L 66.23 46.334 L 66.23 62.237 Z M 74.254 66.249 L 62.597 66.249 L 46.336 66.249 L 39.662 59.577 L 42.492 56.746 L 48.005 62.259 L 59.345 62.259 L 48.173 51.066 L 51.024 48.215 L 62.196 59.387 L 62.196 48.046 L 56.706 42.556 L 59.514 39.747 L 45.639 25.808 L 31.954 25.808 L 31.954 25.808 L 17.763 25.808 L 25.746 33.791 L 25.746 33.812 L 25.788 33.812 L 42.304 33.812 L 48.153 39.661 L 39.599 48.215 L 33.751 42.365 L 33.751 37.825 L 25.746 37.825 L 25.746 45.68 L 39.599 59.535 L 33.961 65.174 L 42.978 74.192 L 56.662 74.192 L 82.238 74.192 L 82.238 74.192 L 74.254 66.249 Z"/>
</svg>
